:SAMPLES-PER-SECOND 30
:FULLY-SPECIFIED
:DEGREES
699
root  -2.67887 39.1543 19.8126 -174.467 73.8684 -167.378
RightUpLeg  -3.44914 -7.99272 0.502715
RightLeg  18.8316 1.95022 0.907684
RightFoot  -6.0385 0.041189 -1.77065
RightToes  4.01633e-009 0 -3.6325e-017
Spine  12.0729 -1.38343 13.9315
Spine1  -9.03203 0.960894 -2.36284
HEad  110.732 4.5341 -140.818
LeftShoulder1  1.68408 -1.47436 -27.7281
LeftArm  -3.31693 19.7813 -40.9072
LeftForeArm  39.0347 -1.99839 -9.0428
LeftHand  0.0309409 2.98476 -2.13659
RightShoulder  -0.187389 -4.05075 26.4061
RightArm  13.4989 -6.47788 42.0079
RightForeArm  8.81876 7.50811 7.07256
RightHand  -0.309511 1.19783 -5.58158
LeftUpLeg  -4.51146 0.316986 7.60135
LeftLeg  57.2125 -0.529312 -0.384554
LeftFoot  4.8867 0.338241 -2.58775
LeftToes  -1.95724e-009 9.62483e-011 3.51777e-011
700
root  -1.89405 39.2455 19.8065 -177.377 72.7255 -170.219
RightUpLeg  -1.33342 -8.78059 -0.330335
RightLeg  17.9579 1.55945 1.01589
RightFoot  -7.0916 0.0198143 -1.82939
RightToes  4.01633e-009 0 -3.6325e-017
Spine  11.9397 -1.28354 13.287
Spine1  -8.2491 0.969602 -2.34211
HEad  110.13 0.101498 -142.441
LeftShoulder1  1.64726 -1.39684 -27.5155
LeftArm  -2.91299 21.436 -40.4359
LeftForeArm  35.3593 -4.43097 -9.18354
LeftHand  0.0356548 2.55402 -2.08431
RightShoulder  -0.15213 -3.94488 26.2296
RightArm  13.7387 -4.32836 42.0688
RightForeArm  9.22616 7.08618 7.2448
RightHand  -0.273393 1.03711 -5.06869
LeftUpLeg  -8.07719 1.77415 6.76696
LeftLeg  56.6195 -0.681048 -0.594866
LeftFoot  3.59614 0.153765 -1.34404
LeftToes  -1.95724e-009 9.62483e-011 3.51777e-011
701
root  -1.08855 39.3487 19.784 179.008 71.9316 -173.42
RightUpLeg  1.35125 -9.60222 -1.52482
RightLeg  16.8397 1.64995 1.25235
RightFoot  -8.08498 -0.00208555 -1.84738
RightToes  4.01633e-009 0 -3.6325e-017
Spine  11.9472 -1.06166 13.3264
Spine1  -7.32135 1.3319 -4.16004
HEad  109.338 -7.23599 -143.786
LeftShoulder1  1.70863 -1.69469 -26.7367
LeftArm  -3.34654 22.4423 -40.6636
LeftForeArm  33.0308 -6.30939 -8.84616
LeftHand  0.0243651 3.09337 -2.14461
RightShoulder  -0.238264 -4.20211 26.6358
RightArm  14.166 -2.50472 41.8946
RightForeArm  7.99302 7.13657 7.47167
RightHand  -0.316134 0.888413 -5.93618
LeftUpLeg  -10.3202 3.67503 5.47821
LeftLeg  53.2455 -1.10808 -1.12814
LeftFoot  1.47649 0.101699 -0.981558
LeftToes  -1.95724e-009 9.62483e-011 3.51777e-011
702
root  -0.422561 39.438 19.718 177.674 72.0706 -175.299
RightUpLeg  2.51023 -9.66346 -2.06697
RightLeg  15.7474 1.79767 1.26425
RightFoot  -8.60865 -0.0164505 -1.7573
RightToes  4.01633e-009 0 -3.6325e-017
Spine  11.9864 -0.555292 14.0473
Spine1  -7.25267 1.932 -6.49909
HEad  107.316 -10.4317 -144.226
LeftShoulder1  1.69103 -1.68335 -26.4612
LeftArm  -3.31062 22.5114 -40.754
LeftForeArm  32.5707 -7.59056 -8.62039
LeftHand  0.0439588 2.44597 -2.32141
RightShoulder  -0.233074 -4.18491 26.6944
RightArm  14.013 -0.933892 42.1393
RightForeArm  7.2387 7.41204 7.47028
RightHand  -0.368682 1.79487 -6.1376
LeftUpLeg  -13.097 6.78715 4.19338
LeftLeg  47.898 -0.674536 -0.415417
LeftFoot  -0.0397095 0.0875571 -0.900783
LeftToes  -1.95724e-009 9.62483e-011 3.51777e-011
703
root  0.277347 39.5141 19.6379 175.913 71.6571 -177.361
RightUpLeg  4.18772 -9.91794 -2.81759
RightLeg  14.481 1.75953 1.33873
RightFoot  -9.20769 -0.0287148 -1.8016
RightToes  4.01633e-009 0 -3.6325e-017
Spine  11.429 -0.156043 13.5648
Spine1  -6.21104 2.2072 -7.22083
HEad  103.383 -11.8046 -144.81
LeftShoulder1  1.6566 -1.53056 -26.7958
LeftArm  -3.09231 21.7168 -40.7184
LeftForeArm  31.9041 -8.36321 -8.50769
LeftHand  0.0262058 2.92759 -2.06759
RightShoulder  -0.225571 -4.16577 26.4699
RightArm  14.2257 0.673211 42.4037
RightForeArm  7.675 7.94235 7.51234
RightHand  -0.337193 2.34283 -5.22606
LeftUpLeg  -14.4272 9.79573 2.7243
LeftLeg  40.0295 0.599161 0.914865
LeftFoot  -0.639562 0.174847 -1.81666
LeftToes  -1.95724e-009 9.62483e-011 3.51777e-011
704
root  0.972187 39.5735 19.5259 174.755 71.0211 -178.756
RightUpLeg  6.10248 -10.0059 -3.35251
RightLeg  12.81 1.36514 1.31977
RightFoot  -9.7333 -0.0429843 -1.63057
RightToes  4.01633e-009 0 -3.6325e-017
Spine  10.4655 0.0775144 12.6149
Spine1  -4.41656 2.23037 -7.1484
HEad  102.23 -18.4231 -144.727
LeftShoulder1  1.51459 -1.00434 -27.4754
LeftArm  -2.42862 20.2999 -40.604
LeftForeArm  31.399 -8.91531 -8.55668
LeftHand  0.017704 2.73999 -1.48459
RightShoulder  -0.171165 -4.01037 25.8499
RightArm  15.328 2.48633 43.0387
RightForeArm  6.04156 8.4775 7.90439
RightHand  -0.441089 2.54976 -6.69016
LeftUpLeg  -14.9116 13.0888 1.28631
LeftLeg  30.5061 1.24232 1.20332
LeftFoot  0.429506 0.242182 -2.37073
LeftToes  -1.95724e-009 9.62483e-011 3.51777e-011
705
root  1.64849 39.6449 19.3982 174.327 70.4061 -179.432
RightUpLeg  8.14228 -9.63212 -3.3759
RightLeg  10.629 0.436489 0.940453
RightFoot  -9.86827 -0.0514995 -1.19252
RightToes  4.01633e-009 0 -3.6325e-017
Spine  9.47274 0.185685 11.7584
Spine1  -2.58541 2.21453 -7.3736
HEad  96.462 0.721708 -150.217
LeftShoulder1  1.47298 -0.892495 -27.4084
LeftArm  -1.30876 19.4995 -41.0268
LeftForeArm  29.8428 -9.93726 -8.55984
LeftHand  0.024206 2.20886 -1.48442
RightShoulder  -0.194095 -4.07935 25.9604
RightArm  16.8006 4.48073 43.2644
RightForeArm  5.14535 9.21889 8.25183
RightHand  -0.39888 1.31385 -7.02937
LeftUpLeg  -14.6402 15.8528 0.0382845
LeftLeg  20.046 1.66802 0.789024
LeftFoot  1.22431 0.346963 -3.22125
LeftToes  -1.95724e-009 9.62483e-011 3.51777e-011
706
root  2.32659 39.6809 19.2301 174.294 70.1778 -179.587
RightUpLeg  10.27 -9.33386 -3.35979
RightLeg  8.48088 -0.0529671 0.78771
RightFoot  -10.0544 -0.0593763 -0.775209
RightToes  4.01633e-009 0 -3.6325e-017
Spine  8.38473 0.343538 10.687
Spine1  -0.379877 2.22587 -6.98157
HEad  90.1829 9.95719 -162.418
LeftShoulder1  1.33568 -0.412489 -27.9955
LeftArm  -0.627474 18.2665 -41.2482
LeftForeArm  29.3048 -10.6349 -8.45798
LeftHand  0.0333034 1.75765 -1.53666
RightShoulder  -0.184204 -4.0565 25.4956
RightArm  17.4388 5.90168 43.9671
RightForeArm  5.84454 10.1657 8.09541
RightHand  -0.370041 1.66948 -6.24763
LeftUpLeg  -13.3356 14.0421 0.213447
LeftLeg  9.46121 6.38951 -0.597279
LeftFoot  1.696 0.379091 -3.41127
LeftToes  -1.95724e-009 9.62483e-011 3.51777e-011
